<mxfile host="app.diagrams.net" agent="Mozilla/5.0 (Windows NT 10.0; Win64; x64) AppleWebKit/537.36 (KHTML, like Gecko) Chrome/131.0.0.0 Safari/537.36" version="26.0.5">
  <diagram name="Page-1" id="F6BhM53N_ITtsMdzpP2n">
    <mxGraphModel dx="2045" dy="615" grid="1" gridSize="10" guides="1" tooltips="1" connect="1" arrows="1" fold="1" page="1" pageScale="1" pageWidth="850" pageHeight="1100" math="0" shadow="0">
      <root>
        <mxCell id="0" />
        <mxCell id="1" parent="0" />
        <mxCell id="OAvGSqqMQwYdZcl9DCns-47" value="&amp;nbsp; &amp;nbsp; &amp;nbsp; &amp;nbsp; &amp;nbsp; &amp;nbsp; &amp;nbsp; &amp;nbsp; &amp;nbsp; &amp;nbsp; &amp;nbsp; &amp;nbsp; &amp;nbsp; &amp;nbsp; &amp;nbsp; &amp;nbsp; &amp;nbsp; &amp;nbsp; &amp;nbsp; &amp;nbsp; Triton?" style="ellipse;shape=cloud;whiteSpace=wrap;html=1;" vertex="1" parent="1">
          <mxGeometry x="325" y="650" width="285" height="250" as="geometry" />
        </mxCell>
        <mxCell id="OAvGSqqMQwYdZcl9DCns-3" value="&lt;b&gt;Requisitos de Modelos online&lt;/b&gt;&lt;div&gt;- Notebook python que recebe um conjunto de entradas, aplica uma função(IA/Analítica) e retorna uma saída&lt;br&gt;&lt;br&gt;&lt;/div&gt;&lt;div&gt;- Ter um namespace próprio&lt;br&gt;&lt;br&gt;&lt;/div&gt;&lt;div&gt;- Consumo via operação IIB&lt;/div&gt;&lt;div&gt;&lt;br&gt;&lt;/div&gt;&lt;div&gt;- Stateless(não conecta com banco de dados)&lt;div style=&quot;&quot;&gt;&lt;br&gt;&lt;/div&gt;&lt;/div&gt;" style="text;html=1;align=left;verticalAlign=middle;whiteSpace=wrap;rounded=0;" vertex="1" parent="1">
          <mxGeometry x="-10" y="30" width="250" height="180" as="geometry" />
        </mxCell>
        <mxCell id="OAvGSqqMQwYdZcl9DCns-9" style="edgeStyle=orthogonalEdgeStyle;rounded=0;orthogonalLoop=1;jettySize=auto;html=1;entryX=0;entryY=0.5;entryDx=0;entryDy=0;" edge="1" parent="1" source="OAvGSqqMQwYdZcl9DCns-4" target="OAvGSqqMQwYdZcl9DCns-8">
          <mxGeometry relative="1" as="geometry" />
        </mxCell>
        <mxCell id="OAvGSqqMQwYdZcl9DCns-4" value="&lt;b&gt;Frontend&lt;/b&gt;&lt;br&gt;- A mesma ideia do cadastro de uma operação IIB" style="rounded=0;whiteSpace=wrap;html=1;" vertex="1" parent="1">
          <mxGeometry y="320" width="120" height="60" as="geometry" />
        </mxCell>
        <mxCell id="OAvGSqqMQwYdZcl9DCns-6" value="Base de metadados de modelos" style="strokeWidth=2;html=1;shape=mxgraph.flowchart.database;whiteSpace=wrap;" vertex="1" parent="1">
          <mxGeometry x="520" y="300" width="110" height="100" as="geometry" />
        </mxCell>
        <mxCell id="OAvGSqqMQwYdZcl9DCns-7" value="&lt;b&gt;Serviço 1 - Cadastrar operações de modelos&lt;/b&gt;&lt;div&gt;&lt;b&gt;&lt;br&gt;&lt;/b&gt;&lt;/div&gt;&lt;div&gt;&lt;b&gt;- &lt;/b&gt;Serviço de cadastro de contratos(Requisição/Resposta)&lt;br&gt;&lt;br&gt;- Esse aqui é relativamente simples&lt;/div&gt;" style="text;html=1;align=left;verticalAlign=middle;whiteSpace=wrap;rounded=0;" vertex="1" parent="1">
          <mxGeometry x="-10" y="220" width="300" height="90" as="geometry" />
        </mxCell>
        <mxCell id="OAvGSqqMQwYdZcl9DCns-10" style="edgeStyle=orthogonalEdgeStyle;rounded=0;orthogonalLoop=1;jettySize=auto;html=1;entryX=0;entryY=0.5;entryDx=0;entryDy=0;entryPerimeter=0;" edge="1" parent="1" source="OAvGSqqMQwYdZcl9DCns-8" target="OAvGSqqMQwYdZcl9DCns-6">
          <mxGeometry relative="1" as="geometry">
            <mxPoint x="480" y="350" as="targetPoint" />
          </mxGeometry>
        </mxCell>
        <mxCell id="OAvGSqqMQwYdZcl9DCns-8" value="&lt;b&gt;Backend&lt;/b&gt;&lt;div&gt;- E cadastro de metadados de campos na base&lt;/div&gt;" style="rounded=1;whiteSpace=wrap;html=1;" vertex="1" parent="1">
          <mxGeometry x="240" y="320" width="150" height="60" as="geometry" />
        </mxCell>
        <mxCell id="OAvGSqqMQwYdZcl9DCns-17" value="&lt;b&gt;Serviço 2 - Criação de namespaces e implantação de modelos&lt;/b&gt;&lt;div&gt;&lt;b&gt;&lt;br&gt;&lt;/b&gt;&lt;/div&gt;&lt;div&gt;&lt;b&gt;- &lt;/b&gt;Muito semelhante ao que já é feito na plataforma A2B2&amp;nbsp;&lt;/div&gt;&lt;div&gt;&lt;br&gt;&lt;/div&gt;&lt;div&gt;- Ter uma espécie de agente-online-operator com capacidade de criar deployments no lugar de jobs&lt;/div&gt;" style="text;html=1;align=left;verticalAlign=middle;whiteSpace=wrap;rounded=0;" vertex="1" parent="1">
          <mxGeometry x="-10" y="420" width="310" height="120" as="geometry" />
        </mxCell>
        <mxCell id="OAvGSqqMQwYdZcl9DCns-18" value="&lt;b&gt;Serviço 3 - Consumo do modelo online - Ideia 1&lt;/b&gt;&lt;div&gt;&lt;br&gt;&lt;/div&gt;&lt;div&gt;- Criar um HUB que recebe uma chamada à um modelo&lt;br&gt;&amp;nbsp; - Baseado no número GAIA do modelo direciona para o deployment criado&lt;/div&gt;" style="text;html=1;align=left;verticalAlign=middle;whiteSpace=wrap;rounded=0;" vertex="1" parent="1">
          <mxGeometry x="-15" y="550" width="310" height="120" as="geometry" />
        </mxCell>
        <mxCell id="OAvGSqqMQwYdZcl9DCns-30" style="edgeStyle=orthogonalEdgeStyle;rounded=0;orthogonalLoop=1;jettySize=auto;html=1;entryX=0;entryY=0.5;entryDx=0;entryDy=0;" edge="1" parent="1" source="OAvGSqqMQwYdZcl9DCns-20" target="OAvGSqqMQwYdZcl9DCns-32">
          <mxGeometry relative="1" as="geometry">
            <mxPoint x="350" y="670" as="targetPoint" />
          </mxGeometry>
        </mxCell>
        <mxCell id="OAvGSqqMQwYdZcl9DCns-37" style="edgeStyle=orthogonalEdgeStyle;rounded=0;orthogonalLoop=1;jettySize=auto;html=1;" edge="1" parent="1" source="OAvGSqqMQwYdZcl9DCns-20" target="OAvGSqqMQwYdZcl9DCns-36">
          <mxGeometry relative="1" as="geometry" />
        </mxCell>
        <mxCell id="OAvGSqqMQwYdZcl9DCns-39" style="edgeStyle=orthogonalEdgeStyle;rounded=0;orthogonalLoop=1;jettySize=auto;html=1;entryX=0;entryY=0.5;entryDx=0;entryDy=0;" edge="1" parent="1" source="OAvGSqqMQwYdZcl9DCns-20" target="OAvGSqqMQwYdZcl9DCns-33">
          <mxGeometry relative="1" as="geometry" />
        </mxCell>
        <mxCell id="OAvGSqqMQwYdZcl9DCns-40" style="edgeStyle=orthogonalEdgeStyle;rounded=0;orthogonalLoop=1;jettySize=auto;html=1;entryX=0;entryY=0.5;entryDx=0;entryDy=0;" edge="1" parent="1" source="OAvGSqqMQwYdZcl9DCns-20" target="OAvGSqqMQwYdZcl9DCns-35">
          <mxGeometry relative="1" as="geometry" />
        </mxCell>
        <mxCell id="OAvGSqqMQwYdZcl9DCns-41" style="edgeStyle=orthogonalEdgeStyle;rounded=0;orthogonalLoop=1;jettySize=auto;html=1;entryX=0;entryY=0.5;entryDx=0;entryDy=0;" edge="1" parent="1" source="OAvGSqqMQwYdZcl9DCns-20" target="OAvGSqqMQwYdZcl9DCns-36">
          <mxGeometry relative="1" as="geometry" />
        </mxCell>
        <mxCell id="OAvGSqqMQwYdZcl9DCns-20" value="big-direcionamento-ibb&lt;div&gt;&lt;b&gt;É uma operação IIB&lt;/b&gt;&lt;/div&gt;" style="rounded=1;whiteSpace=wrap;html=1;" vertex="1" parent="1">
          <mxGeometry x="190" y="710" width="120" height="110" as="geometry" />
        </mxCell>
        <mxCell id="OAvGSqqMQwYdZcl9DCns-26" style="edgeStyle=orthogonalEdgeStyle;rounded=0;orthogonalLoop=1;jettySize=auto;html=1;entryX=0;entryY=0.5;entryDx=0;entryDy=0;" edge="1" parent="1" source="OAvGSqqMQwYdZcl9DCns-21" target="OAvGSqqMQwYdZcl9DCns-20">
          <mxGeometry relative="1" as="geometry" />
        </mxCell>
        <mxCell id="OAvGSqqMQwYdZcl9DCns-21" value="A1A- Usuário 1" style="rounded=1;whiteSpace=wrap;html=1;" vertex="1" parent="1">
          <mxGeometry x="30" y="690" width="60" height="40" as="geometry" />
        </mxCell>
        <mxCell id="OAvGSqqMQwYdZcl9DCns-27" style="edgeStyle=orthogonalEdgeStyle;rounded=0;orthogonalLoop=1;jettySize=auto;html=1;entryX=0;entryY=0.5;entryDx=0;entryDy=0;" edge="1" parent="1" source="OAvGSqqMQwYdZcl9DCns-23" target="OAvGSqqMQwYdZcl9DCns-20">
          <mxGeometry relative="1" as="geometry" />
        </mxCell>
        <mxCell id="OAvGSqqMQwYdZcl9DCns-23" value="A2A-Usuário 2" style="rounded=1;whiteSpace=wrap;html=1;" vertex="1" parent="1">
          <mxGeometry x="30" y="730" width="60" height="40" as="geometry" />
        </mxCell>
        <mxCell id="OAvGSqqMQwYdZcl9DCns-44" style="edgeStyle=orthogonalEdgeStyle;rounded=0;orthogonalLoop=1;jettySize=auto;html=1;entryX=0;entryY=0.5;entryDx=0;entryDy=0;" edge="1" parent="1" source="OAvGSqqMQwYdZcl9DCns-24" target="OAvGSqqMQwYdZcl9DCns-20">
          <mxGeometry relative="1" as="geometry" />
        </mxCell>
        <mxCell id="OAvGSqqMQwYdZcl9DCns-24" value="B1B -Usuário 3" style="rounded=1;whiteSpace=wrap;html=1;" vertex="1" parent="1">
          <mxGeometry x="30" y="770" width="60" height="40" as="geometry" />
        </mxCell>
        <mxCell id="OAvGSqqMQwYdZcl9DCns-29" style="edgeStyle=orthogonalEdgeStyle;rounded=0;orthogonalLoop=1;jettySize=auto;html=1;entryX=0;entryY=0.5;entryDx=0;entryDy=0;" edge="1" parent="1" source="OAvGSqqMQwYdZcl9DCns-25" target="OAvGSqqMQwYdZcl9DCns-20">
          <mxGeometry relative="1" as="geometry">
            <Array as="points">
              <mxPoint x="140" y="830" />
              <mxPoint x="140" y="765" />
            </Array>
          </mxGeometry>
        </mxCell>
        <mxCell id="OAvGSqqMQwYdZcl9DCns-25" value="B2B - Usuário 4" style="rounded=1;whiteSpace=wrap;html=1;" vertex="1" parent="1">
          <mxGeometry x="30" y="810" width="60" height="40" as="geometry" />
        </mxCell>
        <mxCell id="OAvGSqqMQwYdZcl9DCns-32" value="Modelo1" style="rounded=1;whiteSpace=wrap;html=1;" vertex="1" parent="1">
          <mxGeometry x="425" y="700" width="60" height="40" as="geometry" />
        </mxCell>
        <mxCell id="OAvGSqqMQwYdZcl9DCns-33" value="Modelo2" style="rounded=1;whiteSpace=wrap;html=1;" vertex="1" parent="1">
          <mxGeometry x="425" y="740" width="60" height="40" as="geometry" />
        </mxCell>
        <mxCell id="OAvGSqqMQwYdZcl9DCns-35" value="Modelo3" style="rounded=1;whiteSpace=wrap;html=1;" vertex="1" parent="1">
          <mxGeometry x="425" y="780" width="60" height="40" as="geometry" />
        </mxCell>
        <mxCell id="OAvGSqqMQwYdZcl9DCns-36" value="Modelo4" style="rounded=1;whiteSpace=wrap;html=1;" vertex="1" parent="1">
          <mxGeometry x="425" y="820" width="60" height="40" as="geometry" />
        </mxCell>
        <mxCell id="OAvGSqqMQwYdZcl9DCns-45" style="edgeStyle=orthogonalEdgeStyle;rounded=0;orthogonalLoop=1;jettySize=auto;html=1;startArrow=classic;startFill=1;" edge="1" parent="1" source="OAvGSqqMQwYdZcl9DCns-43" target="OAvGSqqMQwYdZcl9DCns-20">
          <mxGeometry relative="1" as="geometry" />
        </mxCell>
        <mxCell id="OAvGSqqMQwYdZcl9DCns-46" value="Valida payload" style="edgeLabel;html=1;align=center;verticalAlign=middle;resizable=0;points=[];" vertex="1" connectable="0" parent="OAvGSqqMQwYdZcl9DCns-45">
          <mxGeometry x="0.3222" y="-1" relative="1" as="geometry">
            <mxPoint as="offset" />
          </mxGeometry>
        </mxCell>
        <mxCell id="OAvGSqqMQwYdZcl9DCns-43" value="Base de metadados de modelos" style="strokeWidth=2;html=1;shape=mxgraph.flowchart.database;whiteSpace=wrap;" vertex="1" parent="1">
          <mxGeometry x="330" y="590" width="110" height="100" as="geometry" />
        </mxCell>
        <mxCell id="OAvGSqqMQwYdZcl9DCns-49" value="- Isso aqui não parece escalar, o big-direcionamento-iib receberia muitas requisições" style="text;html=1;align=left;verticalAlign=middle;whiteSpace=wrap;rounded=0;" vertex="1" parent="1">
          <mxGeometry x="-10" y="870" width="350" height="30" as="geometry" />
        </mxCell>
        <mxCell id="OAvGSqqMQwYdZcl9DCns-51" value="&lt;b&gt;Serviço 3 - Consumo do modelo online - Ideia 2&lt;/b&gt;&lt;div style=&quot;text-align: left;&quot;&gt;- O usuário cria sua própria IIB na sua sigla&lt;/div&gt;&lt;div style=&quot;text-align: left;&quot;&gt;- Usuário cria aplicação, usa como dependência um chart produzido por nós que ao passar os parâmetros certos aponta para o modelo rodando no triton&lt;/div&gt;" style="text;html=1;align=center;verticalAlign=middle;whiteSpace=wrap;rounded=0;" vertex="1" parent="1">
          <mxGeometry x="-10" y="930" width="300" height="110" as="geometry" />
        </mxCell>
      </root>
    </mxGraphModel>
  </diagram>
</mxfile>
